<?xml version="1.0" encoding="UTF-8"?>
<svg width="22px" height="22px" viewBox="0 0 22 22" version="1.1" xmlns="http://www.w3.org/2000/svg" xmlns:xlink="http://www.w3.org/1999/xlink">
    <!-- Generator: Sketch 52.6 (67491) - http://www.bohemiancoding.com/sketch -->
    <title>shopping-cart</title>
    <desc>Created with Sketch.</desc>
    <g id="Page-1" stroke="none" stroke-width="1" fill="none" fill-rule="evenodd">
        <g id="Desktop" transform="translate(-1858.000000, -14.000000)" fill="#FFFFFF" fill-rule="nonzero">
            <g id="shopping-cart" transform="translate(1858.000000, 14.000000)">
                <path d="M6.27003193,14.4853374 L19.314277,14.4853374 C20.7933708,14.4853374 22,13.3640159 22,11.9894927 L22,6.88928851 C22,6.88476706 22,6.87572414 22,6.87120268 C22,6.85763831 22,6.84859539 22,6.83503102 C22,6.82598811 22,6.81694519 21.9951346,6.80790227 C21.9951346,6.79885936 21.9902691,6.78529499 21.9902691,6.77625207 C21.9902691,6.76720916 21.9854037,6.75816624 21.9854037,6.74912333 C21.9805382,6.74008041 21.9805382,6.73103749 21.9756728,6.71747312 C21.9708074,6.70843021 21.9708074,6.69938729 21.9659419,6.69034438 C21.9610765,6.68130146 21.9610765,6.67225855 21.956211,6.66321563 C21.9513456,6.65417271 21.9464802,6.6451298 21.9416147,6.63156543 C21.9367493,6.62252251 21.9318838,6.6134796 21.9270184,6.60895814 C21.922153,6.59991522 21.9172875,6.59087231 21.9124221,6.58182939 C21.9075566,6.57278648 21.9026912,6.56826502 21.8978258,6.5592221 C21.8929603,6.55017919 21.8832294,6.54113627 21.878364,6.53209336 C21.8734986,6.52305044 21.8686331,6.51852898 21.8589022,6.50948607 C21.8540368,6.50044315 21.8443059,6.4959217 21.8394405,6.48687878 C21.834575,6.47783587 21.8248442,6.47331441 21.8199787,6.46427149 C21.8151133,6.45522858 21.8053824,6.45070712 21.800517,6.44618566 C21.7907861,6.43714275 21.7859206,6.43262129 21.7761898,6.42357837 C21.7664589,6.41905692 21.7615934,6.410014 21.7518626,6.40549254 C21.7421317,6.40097109 21.7324008,6.39192817 21.7226699,6.38740671 C21.712939,6.38288526 21.7080736,6.3783638 21.6983427,6.37384234 C21.6886118,6.36932088 21.6788809,6.36479942 21.6691501,6.35575651 C21.6594192,6.35123505 21.6496883,6.34671359 21.6399574,6.34219214 C21.6302265,6.33767068 21.6204957,6.33314922 21.6107648,6.32862776 C21.6010339,6.32410631 21.591303,6.31958485 21.5815721,6.31506339 C21.5718413,6.31054193 21.5621104,6.31054193 21.5523795,6.30602048 C21.5426486,6.30149902 21.5280523,6.29697756 21.5183214,6.29697756 C21.5085905,6.29697756 21.4988597,6.2924561 21.4939942,6.2924561 C21.4793979,6.28793464 21.469667,6.28793464 21.4550707,6.28793464 C21.4502053,6.28793464 21.4453398,6.28341319 21.4356089,6.28341319 L4.90284324,4.16284955 L4.90284324,2.01967862 C4.90284324,1.99707133 4.90284324,1.97446404 4.8979778,1.95637821 C4.8979778,1.95185675 4.8979778,1.94733529 4.89311236,1.93829238 C4.89311236,1.92472801 4.88824692,1.91116363 4.88824692,1.89759926 C4.88338148,1.88403489 4.88338148,1.87499197 4.87851604,1.8614276 C4.87851604,1.85238468 4.8736506,1.84786323 4.8736506,1.83882031 C4.86878516,1.82525594 4.86391972,1.81169156 4.85905428,1.79812719 C4.85905428,1.79360573 4.85418884,1.78456282 4.85418884,1.78004136 C4.8493234,1.76647699 4.84445796,1.75743407 4.83472708,1.7438697 C4.82986164,1.73934824 4.82986164,1.73030533 4.8249962,1.72578387 C4.82013076,1.71674095 4.81526532,1.70769804 4.80553444,1.69865512 C4.800669,1.68961221 4.79580356,1.68509075 4.79093812,1.67604783 C4.78607268,1.66700492 4.78120724,1.66248346 4.7763418,1.65344055 C4.77147636,1.64439763 4.76174548,1.63535472 4.75688004,1.6263118 C4.7520146,1.62179034 4.74714916,1.61726889 4.74228372,1.61274743 C4.73255284,1.60370451 4.72282196,1.5946616 4.71309107,1.58561868 C4.70822563,1.58109722 4.70336019,1.57657577 4.69849475,1.57205431 C4.68876387,1.56301139 4.67903299,1.55396848 4.66443667,1.54492556 C4.65957123,1.54040411 4.64984035,1.53588265 4.64497491,1.53136119 C4.63524403,1.52231827 4.62551315,1.51779682 4.61578227,1.5087539 C4.60118595,1.49971099 4.58658963,1.49066807 4.57685875,1.48614661 C4.57199331,1.48162516 4.56712787,1.48162516 4.56226243,1.4771037 C4.54280067,1.46806078 4.51847347,1.45901787 4.49901171,1.44997495 L0.913182302,0.0483230787 C0.57746693,-0.0827991933 0.193097157,0.0618874517 0.0519993918,0.37386803 C-0.0890983731,0.685848608 0.0665957123,1.04304376 0.402311084,1.17416604 L3.58430896,2.42208835 L3.58430896,5.18922043 L3.58430896,5.62780183 L3.58430896,8.99176632 L3.58430896,11.9985357 L3.58430896,15.7965601 C3.58430896,17.0625682 4.60605139,18.1115464 5.92458568,18.2697974 C5.68617911,18.640557 5.54508134,19.0746169 5.54508134,19.5358056 C5.54508134,20.8967643 6.73711419,22 8.19674624,22 C9.65637829,22 10.8484111,20.8922429 10.8484111,19.5358056 C10.8484111,19.0836598 10.7170442,18.6541213 10.4835031,18.2924047 L16.3901475,18.2924047 C16.1566064,18.6586428 16.0252395,19.0836598 16.0252395,19.5358056 C16.0252395,20.8967643 17.2172723,22 18.6769044,22 C20.1365364,22 21.3285693,20.8922429 21.3285693,19.5358056 C21.3285693,18.1793683 20.1365364,17.0716112 18.6769044,17.0716112 L6.27003193,17.0716112 C5.51102326,17.0716112 4.8979778,16.497386 4.8979778,15.7965601 L4.8979778,14.1417066 C5.2969439,14.3587366 5.76889159,14.4853374 6.27003193,14.4853374 Z M9.53960772,19.5312841 C9.53960772,20.2185457 8.93629314,20.774685 8.20161168,20.774685 C7.46693021,20.774685 6.86361563,20.2140242 6.86361563,19.5312841 C6.86361563,18.848544 7.46693021,18.2878833 8.20161168,18.2878833 C8.93629314,18.2878833 9.53960772,18.8440226 9.53960772,19.5312841 Z M20.0197659,19.5312841 C20.0197659,20.2185457 19.4164513,20.774685 18.6817698,20.774685 C17.9470883,20.774685 17.3437738,20.2140242 17.3437738,19.5312841 C17.3437738,18.848544 17.9470883,18.2878833 18.6817698,18.2878833 C19.4164513,18.2878833 20.0197659,18.8440226 20.0197659,19.5312841 Z M19.314277,13.2645438 L6.27003193,13.2645438 C5.51102326,13.2645438 4.8979778,12.6903187 4.8979778,11.9894927 L4.8979778,8.98272341 L4.8979778,5.61875891 L4.8979778,5.39268603 L20.6863312,7.4137776 L20.6863312,11.9849713 C20.6863312,12.6948401 20.0684203,13.2645438 19.314277,13.2645438 Z" id="Shape"></path>
            </g>
        </g>
    </g>
</svg>