<?xml version="1.0" encoding="UTF-8"?>
<svg width="22px" height="22px" viewBox="0 0 22 22" version="1.1" xmlns="http://www.w3.org/2000/svg" xmlns:xlink="http://www.w3.org/1999/xlink">
    <!-- Generator: Sketch 52.6 (67491) - http://www.bohemiancoding.com/sketch -->
    <title>login</title>
    <desc>Created with Sketch.</desc>
    <g id="Page-1" stroke="none" stroke-width="1" fill="none" fill-rule="evenodd">
        <g id="Desktop" transform="translate(-1731.000000, -14.000000)" fill="#FFFFFF">
            <g id="login" transform="translate(1731.000000, 14.000000)">
                <path d="M5.65039063,20.28125 L2.60790234,20.28125 C2.24103516,20.28125 2.01970313,20.0765039 1.92044531,19.9544297 C1.74908594,19.743625 1.68269922,19.4693125 1.73842969,19.2016602 C2.63084766,14.9150547 6.41381641,11.7845664 10.7809883,11.6829883 C10.8537344,11.6856953 10.9266523,11.6875 11,11.6875 C11.0739922,11.6875 11.1475547,11.6856523 11.2209453,11.6829023 C12.2888477,11.7072656 13.331957,11.9080586 14.3248359,12.2808984 C14.7691328,12.447832 15.2646055,12.2228047 15.4314531,11.7784648 C15.5983008,11.334168 15.3733594,10.8386953 14.9290195,10.6718477 C14.78675,10.6183945 14.6434922,10.5683789 14.4995469,10.5209414 C15.9218555,9.45402734 16.84375,7.75452734 16.84375,5.84375 C16.84375,2.62152344 14.2222695,0 11,0 C7.77773047,0 5.15625,2.62152344 5.15625,5.84375 C5.15625,7.75624609 6.07973438,9.45707812 7.50419141,10.5238203 C6.1991875,10.9534219 4.97457813,11.6215 3.90285156,12.5030469 C1.93780469,14.1194023 0.571527344,16.3739297 0.0557734375,18.8513789 C-0.105875,19.6276523 0.0877421875,20.4249805 0.586996094,21.038832 C1.08371484,21.6496758 1.82032813,22 2.60790234,22 L5.65039063,22 C6.12502344,22 6.50976563,21.6152578 6.50976563,21.140625 C6.50976563,20.6659922 6.12502344,20.28125 5.65039063,20.28125 Z M6.875,5.84375 C6.875,3.56919922 8.72544922,1.71875 11,1.71875 C13.2745508,1.71875 15.125,3.56919922 15.125,5.84375 C15.125,8.05092578 13.3824453,9.85866406 11.2008359,9.96380859 C11.1339336,9.96260547 11.0670313,9.96157422 11,9.96157422 C10.9327969,9.96157422 10.8656367,9.9625625 10.7985195,9.96376562 C8.61721094,9.85832031 6.875,8.05071094 6.875,5.84375 Z" id="Shape" fill-rule="nonzero"></path>
                <path d="M21.3421055,14.807332 C20.97425,13.9844805 20.1456406,13.4513242 19.2290742,13.4492188 L16.5490273,13.4492188 C16.5470937,13.4492188 16.5452891,13.4492188 16.5433125,13.4492188 C15.5765156,13.4492188 14.7330391,14.0189844 14.3936289,14.9018633 C14.3484688,15.0193398 14.2932539,15.1673242 14.2356328,15.3398438 L8.60904688,15.3398438 C8.37671484,15.3398438 8.15430859,15.4339023 7.99244531,15.6005781 L6.51621094,17.1211562 C6.19106641,17.4560547 6.19269922,17.9892539 6.51986328,18.3221328 L8.02376953,19.8523359 C8.18533203,20.0167344 8.40619141,20.109332 8.63667578,20.109332 L11.4296445,20.109332 C11.9042773,20.109332 12.2890195,19.7245898 12.2890195,19.249957 C12.2890195,18.7753242 11.9042773,18.390582 11.4296445,18.390582 L8.99701172,18.390582 L8.33408984,17.7160586 L8.97247656,17.0585938 L14.880293,17.0585938 C15.276207,17.0585938 15.6208594,16.7881055 15.7150039,16.4035781 C15.7845273,16.1196836 15.8717539,15.8467461 15.9979102,15.5185937 C16.0810977,15.3022031 16.2900117,15.1679687 16.545375,15.1679687 C16.5459336,15.1679687 16.5464922,15.1679687 16.5470508,15.1679687 L19.2270547,15.1679687 C19.4700859,15.1685273 19.6792578,15.2991523 19.7729727,15.5087969 C20.0036719,16.0249375 20.2791445,16.8239844 20.281207,17.6996016 C20.2832695,18.581707 20.0080977,19.3990586 19.7767969,19.9294219 C19.6835547,20.1433203 19.4726211,20.28125 19.2371094,20.28125 C19.2366367,20.28125 19.2361641,20.28125 19.2356914,20.28125 L16.5232891,20.28125 C16.285543,20.2806914 16.0628359,20.1277227 15.9691641,19.9006328 C15.8686602,19.656957 15.7815625,19.3787344 15.7028867,19.0499805 C15.5924141,18.5884102 15.1285234,18.3037852 14.667125,18.4142148 C14.2055117,18.5246875 13.9208867,18.9884492 14.0313594,19.4500195 C14.1310898,19.8667734 14.2452578,20.2285273 14.3803086,20.5559492 C14.7412031,21.4309648 15.5808125,21.9977656 16.5213125,21.999957 L19.2337148,21.999957 C19.2355625,21.999957 19.2372812,21.999957 19.2391289,21.999957 C20.1565547,21.9999141 20.9856797,21.4572617 21.352332,20.6163203 C21.649332,19.9352227 22.00275,18.8756133 21.999957,17.6955195 C21.997207,16.5186484 21.6406953,15.4753242 21.3421055,14.807332 Z" id="Path"></path>
            </g>
        </g>
    </g>
</svg>