<?xml version="1.0" encoding="UTF-8"?>
<svg width="22px" height="22px" viewBox="0 0 22 22" version="1.1" xmlns="http://www.w3.org/2000/svg" xmlns:xlink="http://www.w3.org/1999/xlink">
    <!-- Generator: Sketch 52.6 (67491) - http://www.bohemiancoding.com/sketch -->
    <title>search</title>
    <desc>Created with Sketch.</desc>
    <g id="Page-1" stroke="none" stroke-width="1" fill="none" fill-rule="evenodd">
        <g id="Desktop" transform="translate(-1610.000000, -14.000000)" fill="#FFFFFF" fill-rule="nonzero">
            <g id="search" transform="translate(1610.000000, 14.000000)">
                <path d="M21.2844211,20.0265614 L16.0515088,14.5840702 C17.3969825,12.9846316 18.1341754,10.9722105 18.1341754,8.87719298 C18.1341754,3.98238596 14.1517895,0 9.25698246,0 C4.36217544,0 0.379789474,3.98238596 0.379789474,8.87719298 C0.379789474,13.772 4.36217544,17.754386 9.25698246,17.754386 C11.0945614,17.754386 12.8456842,17.2001404 14.3428421,16.148 L19.6155088,21.6317895 C19.8358947,21.8606667 20.1323158,21.9868772 20.4499649,21.9868772 C20.7506316,21.9868772 21.0358596,21.8722456 21.252386,21.6638246 C21.7124561,21.2211228 21.7271228,20.4870175 21.2844211,20.0265614 Z M9.25698246,2.31578947 C12.8750175,2.31578947 15.818386,5.25915789 15.818386,8.87719298 C15.818386,12.4952281 12.8750175,15.4385965 9.25698246,15.4385965 C5.63894737,15.4385965 2.69557895,12.4952281 2.69557895,8.87719298 C2.69557895,5.25915789 5.63894737,2.31578947 9.25698246,2.31578947 Z" id="Shape"></path>
            </g>
        </g>
    </g>
</svg>